<?xml version="1.0" encoding="UTF-8" standalone="no"?>
<svg
   xmlns:dc="http://purl.org/dc/elements/1.1/"
   xmlns:cc="http://creativecommons.org/ns#"
   xmlns:rdf="http://www.w3.org/1999/02/22-rdf-syntax-ns#"
   xmlns:svg="http://www.w3.org/2000/svg"
   xmlns="http://www.w3.org/2000/svg"
   xmlns:sodipodi="http://sodipodi.sourceforge.net/DTD/sodipodi-0.dtd"
   xmlns:inkscape="http://www.inkscape.org/namespaces/inkscape"
   id="svg"
   width="400"
   height="427.6625172890733"
   viewBox="0, 0, 400,427.6625172890733"
   version="1.1"
   sodipodi:docname="bcdevex.svg"
   inkscape:version="1.0.1 (c497b03c, 2020-09-10)"
   inkscape:export-filename="/Users/monica/blog/devex.png"
   inkscape:export-xdpi="40.405693"
   inkscape:export-ydpi="40.405693">
  <metadata
     id="metadata17">
    <rdf:RDF>
      <cc:Work
         rdf:about="">
        <dc:format>image/svg+xml</dc:format>
        <dc:type
           rdf:resource="http://purl.org/dc/dcmitype/StillImage" />
        <dc:title></dc:title>
      </cc:Work>
    </rdf:RDF>
  </metadata>
  <defs
     id="defs15">
    <rect
       x="0.002"
       y="0.163"
       width="399.43912"
       height="430.39401"
       id="rect847" />
  </defs>
  <sodipodi:namedview
     pagecolor="#dcdcdc"
     bordercolor="#666666"
     borderopacity="1"
     objecttolerance="10"
     gridtolerance="10"
     guidetolerance="10"
     inkscape:pageopacity="0"
     inkscape:pageshadow="2"
     inkscape:window-width="1440"
     inkscape:window-height="770"
     id="namedview13"
     showgrid="false"
     inkscape:zoom="1.3819308"
     inkscape:cx="189.91765"
     inkscape:cy="211.33227"
     inkscape:window-x="0"
     inkscape:window-y="25"
     inkscape:window-maximized="0"
     inkscape:current-layer="svg"
     inkscape:document-rotation="0" />
  <g
     id="svgg">
    <path
       id="path0"
       d="M 0.002,0.163 C 0.003,0.225 2.72,6.827 6.04,14.833 l 6.037,14.556 -0.773,4.771 c -0.935,5.779 -1.603,5.317 5.305,3.672 3.189,-0.759 6.43,-1.258 7.203,-1.109 4.211,0.812 6.037,-0.13 7.005,-3.613 0.731,-2.626 1.36,-3.627 3.259,-5.183 l 2.353,-1.929 7.493,-0.359 7.493,-0.359 0.617,1.606 c 0.339,0.884 0.813,4.24 1.054,7.458 0.379,5.062 0.616,6.04 1.754,7.246 0.723,0.767 2.492,2.91 3.93,4.763 l 2.614,3.368 -0.888,2.397 -0.888,2.397 2.008,3.987 c 1.104,2.193 2.008,4.492 2.008,5.108 0,0.616 0.246,1.12 0.547,1.12 1.031,0 5.658,10.013 5.345,11.565 -0.336,1.663 1.094,10.06 2.129,12.502 0.386,0.913 1.255,4.149 1.93,7.192 0.675,3.043 1.557,6.777 1.961,8.299 0.403,1.521 0.891,3.949 1.084,5.394 0.192,1.445 0.551,2.628 0.798,2.628 1.63,0 1.098,4.572 -0.801,6.889 l -1.968,2.401 1.956,1.209 c 2.265,1.4 2.289,1.493 0.85,3.332 -1.448,1.852 -1.393,4.683 0.133,6.826 0.864,1.214 1.213,2.44 1.151,4.044 -0.085,2.212 -0.014,2.316 1.831,2.662 1.382,0.259 3.415,1.743 7.266,5.301 3.515,3.249 5.534,4.755 5.892,4.396 1.359,-1.359 2.538,-0.59 2.538,1.657 0,1.543 0.551,3.075 1.842,5.117 1.013,1.604 1.992,3.328 2.176,3.831 0.183,0.504 1.034,1.074 1.892,1.266 4.932,1.106 5.788,5.716 1.709,9.203 -2.944,2.516 -3.654,4.32 -3.673,9.336 -0.021,5.327 -0.591,7.805 -2.365,10.283 -1.288,1.797 -1.53,2.585 -1.242,4.029 0.331,1.653 0.067,2.099 -3.309,5.596 -3.048,3.157 -3.669,4.117 -3.669,5.668 0,2.042 -1.297,4.326 -2.457,4.326 -0.403,0 -2.146,1.655 -3.873,3.678 l -3.14,3.678 2.081,2.131 c 1.362,1.395 2.579,2.131 3.522,2.131 0.793,0 1.925,0.366 2.516,0.812 1.017,0.769 0.979,0.814 -0.707,0.83 -1.345,0.014 -1.703,0.219 -1.465,0.841 0.174,0.452 0.063,1.548 -0.245,2.433 -0.516,1.48 0.522,6.27 1.573,7.256 0.162,0.152 1.496,3.139 2.964,6.639 3.126,7.45 2.738,6.854 4.018,6.164 0.562,-0.303 1.434,-0.677 1.938,-0.831 0.504,-0.153 1.084,-1.045 1.289,-1.981 0.492,-2.236 1.07,-2.477 8.693,-3.609 8.313,-1.235 8.178,-1.373 4.022,4.129 -4.205,5.569 -5.248,12.725 -1.854,12.725 0.573,0 1.042,0.374 1.042,0.83 0,0.598 -0.613,0.83 -2.198,0.83 h -2.197 l 1.362,3.181 c 0.75,1.75 1.72,4.924 2.157,7.054 0.648,3.162 1.101,4.11 2.465,5.166 l 1.672,1.293 -1.769,3.667 c -0.973,2.016 -2.328,4.173 -3.01,4.792 l -1.242,1.126 2.807,3.596 c 1.544,1.978 2.986,3.784 3.206,4.013 0.22,0.228 4.103,-1.077 8.628,-2.901 4.526,-1.824 8.301,-3.244 8.389,-3.155 0.089,0.088 0.639,1.697 1.224,3.574 l 1.062,3.414 -1.181,0.35 c -0.65,0.193 -2.101,1.072 -3.224,1.954 -1.123,0.882 -2.293,1.603 -2.599,1.603 -0.307,0 -1.167,0.561 -1.911,1.245 -0.745,0.685 -3.745,2.475 -6.668,3.978 l -5.314,2.734 v 5.15 5.151 h 2.767 c 3.17,0 3.273,0.204 1.383,2.766 -0.761,1.031 -1.383,2.179 -1.383,2.551 0,0.372 -0.197,0.759 -0.437,0.861 -0.676,0.285 -3.92,5.801 -4.299,7.309 -0.283,1.13 0.483,2.247 4.786,6.979 l 5.124,5.634 1.705,-2.031 1.705,-2.032 6.635,3.466 c 3.649,1.907 6.833,3.795 7.076,4.196 0.244,0.401 0.804,0.729 1.245,0.729 1.086,0 1.077,0.037 -1.175,4.509 -1.088,2.161 -1.773,4.111 -1.522,4.335 1.126,1.005 13.796,3.676 15.205,3.207 1.241,-0.414 2.292,0.053 7.456,3.312 5.456,3.443 8.258,6.183 6.825,6.675 -1.818,0.625 -0.273,9.075 2.136,11.681 0.71,0.768 1.693,2.077 2.184,2.909 0.623,1.054 1.239,1.444 2.03,1.287 0.624,-0.125 2.398,-0.369 3.942,-0.543 l 2.807,-0.316 1.335,2.849 1.334,2.848 -1.237,0.821 c -1.626,1.08 -1.572,1.704 0.119,1.38 1.31,-0.25 1.36,-0.142 1.521,3.255 l 0.166,3.513 3.458,0.743 c 3.314,0.712 3.458,0.813 3.458,2.414 0,0.974 0.576,2.355 1.383,3.314 1.054,1.252 1.383,2.274 1.383,4.291 v 2.647 l 3.735,0.367 c 16.803,1.65 36.274,4.256 36.717,4.916 0.188,0.279 4.67,0.729 9.959,0.999 5.289,0.27 13.351,0.902 17.916,1.403 10.867,1.195 22.724,1.719 74.688,3.301 15.519,0.472 36.853,0.78 47.409,0.684 l 19.193,-0.175 -1.572,-3.726 c -1.284,-3.045 -2.376,-4.482 -5.975,-7.868 l -4.404,-4.143 -0.366,-9.006 c -0.204,-5.018 -0.894,-12.01 -1.558,-15.79 l -1.191,-6.785 -4.219,-2.434 c -2.321,-1.338 -6.51,-4.384 -9.309,-6.767 l -5.089,-4.334 v -2.988 c 0,-3.111 -2.823,-7.805 -4.693,-7.805 -0.41,0 -1.701,-1.075 -2.867,-2.389 -1.167,-1.313 -2.563,-2.552 -3.103,-2.753 -0.539,-0.201 -1.137,-0.807 -1.327,-1.346 -0.191,-0.54 -0.786,-1.479 -1.323,-2.088 -0.537,-0.608 -1.558,-3.347 -2.27,-6.085 l -1.294,-4.98 -3.327,-0.025 c -4.236,-0.032 -4.372,-0.134 -5.575,-4.148 -1.286,-4.294 -6.534,-8.957 -10.8,-9.597 l -2.54,-0.381 -1.007,-3.324 c -1.135,-3.752 -1.17,-3.786 -4.964,-4.949 l -2.766,-0.847 -0.815,-3.717 c -0.633,-2.888 -1.034,-3.717 -1.798,-3.717 -0.797,0 -0.984,-0.473 -0.984,-2.49 0,-1.844 -0.215,-2.489 -0.829,-2.489 -0.457,0 -0.83,-0.374 -0.83,-0.83 0,-0.457 -0.205,-0.83 -0.456,-0.83 -0.25,0 -2.262,-1.156 -4.471,-2.569 l -4.015,-2.57 0.371,-3.198 0.371,-3.199 -2.677,-0.412 c -1.473,-0.227 -3.487,-0.395 -4.476,-0.373 -1.836,0.041 -2.331,-0.756 -1.182,-1.905 0.338,-0.338 0.447,-0.888 0.241,-1.221 -0.571,-0.924 -3.623,-2.371 -3.623,-1.718 0,0.312 -0.498,0.567 -1.107,0.567 -0.808,0 -1.106,-0.368 -1.106,-1.368 0,-0.962 -0.494,-1.625 -1.66,-2.228 -2.181,-1.127 -2.099,-1.723 0.612,-4.486 l 2.273,-2.315 -1.858,-0.402 c -1.021,-0.221 -2.977,-0.959 -4.347,-1.639 -1.369,-0.681 -2.778,-1.135 -3.131,-1.009 -0.895,0.319 -0.405,-5.429 0.997,-11.684 0.608,-2.716 0.976,-5.436 0.817,-6.044 -0.159,-0.609 1.315,-14.777 3.275,-31.484 2.526,-21.52 3.405,-30.676 3.017,-31.402 -1.124,-2.1 -0.666,-8.064 0.751,-9.769 1.438,-1.732 1.258,-0.554 4.511,-29.492 0.521,-4.634 1.176,-8.182 1.554,-8.416 0.429,-0.265 0.774,-3.304 1.006,-8.862 0.195,-4.653 0.771,-11.882 1.28,-16.066 0.51,-4.184 0.779,-7.846 0.599,-8.138 -0.181,-0.292 -0.087,-0.977 0.209,-1.522 0.49,-0.905 1.333,-7.207 2.832,-21.184 0.31,-2.891 0.794,-6.999 1.075,-9.129 0.377,-2.857 0.337,-4.035 -0.15,-4.491 -0.668,-0.626 -17.695,-2.193 -29.983,-2.759 -3.652,-0.168 -8.382,-0.644 -10.512,-1.057 -2.13,-0.413 -7.234,-0.924 -11.342,-1.136 -10.861,-0.559 -15.367,-0.983 -20.193,-1.898 -1.522,-0.288 -6.127,-1.047 -10.235,-1.685 -4.108,-0.639 -9.087,-1.505 -11.065,-1.927 -1.978,-0.421 -5.464,-1.045 -7.746,-1.387 -4.814,-0.721 -5.357,-0.814 -9.342,-1.603 -1.639,-0.325 -3.922,-0.59 -5.072,-0.59 -1.15,0 -2.174,-0.188 -2.276,-0.418 -0.101,-0.229 -3.669,-1.001 -7.93,-1.714 -4.26,-0.714 -16.708,-3.225 -27.662,-5.581 -14.896,-3.203 -20.633,-4.223 -22.756,-4.045 -2.35,0.196 -2.969,0.052 -3.596,-0.839 -0.562,-0.799 -2.613,-1.471 -7.95,-2.606 -3.955,-0.842 -8.312,-1.867 -9.681,-2.279 -9.387,-2.823 -14.031,-4.037 -14.452,-3.777 -0.267,0.165 -0.486,0.076 -0.486,-0.198 0,-0.273 -1.365,-0.803 -3.034,-1.176 -1.668,-0.374 -3.176,-0.911 -3.352,-1.195 -0.175,-0.283 -0.875,-0.515 -1.556,-0.515 -0.681,0 -9.916,-2.49 -20.523,-5.533 -10.607,-3.043 -19.629,-5.532 -20.049,-5.532 -0.421,0 -1.316,-0.358 -1.99,-0.794 C 41.215,15.367 32.448,11.978 22.407,8.272 1.184,0.44 -0.001,0.011 0.002,0.163 m 29.397,214.509 c -1.559,3.775 -2.29,6.362 -2.29,8.112 0,1.741 -0.445,3.328 -1.382,4.927 l -1.383,2.359 2.325,1.286 2.325,1.286 0.989,5.518 c 0.544,3.035 1.054,5.678 1.132,5.873 0.079,0.195 2.346,-0.172 5.037,-0.815 l 4.894,-1.171 1.354,-3.319 c 0.744,-1.826 1.243,-3.753 1.107,-4.282 -0.156,-0.608 0.751,-2.025 2.466,-3.852 1.492,-1.589 2.713,-3.351 2.713,-3.915 0,-1.688 1.208,-3.607 1.608,-2.554 0.239,0.629 1.135,-0.19 3.285,-2.997 l 2.957,-3.862 -2.127,0.351 c -1.17,0.193 -3.154,0.354 -4.409,0.358 -2.235,0.006 -4.284,3.165 -2.45,3.776 0.303,0.101 0.087,0.681 -0.479,1.288 -0.566,0.608 -1.335,2.199 -1.71,3.536 -0.712,2.544 -3.314,5.114 -3.314,3.273 0,-0.723 -0.576,-0.856 -3.181,-0.735 -4.59,0.212 -4.524,-1.383 0.138,-3.348 3.562,-1.501 4.346,-2.172 5.501,-4.71 1.115,-2.451 -1.654,-5.841 -4.771,-5.841 -1.967,0 -2.217,-0.184 -3.313,-2.44 -1.032,-2.125 -2.818,-3.645 -4.282,-3.645 -0.248,0 -1.481,2.494 -2.74,5.543 m 44.957,12.54 c -2.266,0.447 0.235,4.6 2.77,4.6 0.748,0 0.985,-4.021 0.264,-4.478 -0.789,-0.5 -1.06,-0.51 -3.034,-0.122 m 6.624,5.97 c -0.487,1.268 4.584,11.56 6.994,14.197 1.793,1.961 2.217,2.199 2.518,1.413 0.356,-0.928 -0.546,-2.75 -2.161,-4.365 -0.449,-0.45 -2.087,-3.348 -3.639,-6.44 -2.924,-5.827 -3.189,-6.17 -3.712,-4.805 m -6.17,7.086 c -1.921,2.41 -2.377,4.233 -1.237,4.945 0.614,0.383 1.116,1.024 1.116,1.424 0,0.401 1.222,1.97 2.716,3.488 1.494,1.518 2.922,3.184 3.174,3.703 0.305,0.631 0.514,-0.204 0.629,-2.514 0.156,-3.128 0.002,-3.71 -1.61,-6.086 -3.115,-4.592 -4.192,-5.708 -4.788,-4.96 m 27.738,3.545 c -0.76,0.149 -1.289,0.767 -1.472,1.723 -0.392,2.036 -0.315,2.031 2.151,-0.146 2.073,-1.831 1.96,-2.093 -0.679,-1.577 m -66.033,2.251 c -6.252,2.338 -5.74,2.006 -5.035,3.26 0.316,0.562 1.183,3.013 1.928,5.448 0.744,2.434 2.936,7.671 4.87,11.638 l 3.517,7.212 1.233,-1.856 c 1.717,-2.587 1.578,-3.418 -1.267,-7.574 l -2.5,-3.65 0.374,-5.311 c 0.314,-4.474 0.531,-5.352 1.374,-5.573 0.551,-0.144 1.149,-0.726 1.329,-1.294 0.18,-0.568 0.922,-1.5 1.649,-2.072 3.496,-2.75 -0.411,-2.869 -7.472,-0.228 m 67.284,6.7 c -0.782,0.865 -0.827,1.273 -0.273,2.489 0.985,2.163 1.592,1.768 1.592,-1.034 0,-2.828 -0.038,-2.87 -1.319,-1.455 m -5.007,5.923 c -1.521,1.521 -5.636,10.377 -5.424,11.672 0.109,0.662 2.236,3.237 4.729,5.723 l 4.531,4.519 0.493,-2.265 c 0.272,-1.245 0.8,-2.264 1.175,-2.264 0.395,0 0.827,-1.104 1.028,-2.628 0.191,-1.445 0.474,-3.499 0.629,-4.564 0.42,-2.883 -5.725,-11.629 -7.161,-10.193 m -54.254,14.064 c -0.584,0.944 -0.415,5.904 0.242,7.132 0.873,1.63 2.703,1.494 3.366,-0.251 0.691,-1.817 0.713,-1.726 -0.482,-2.039 -0.67,-0.175 -1.245,-1.15 -1.668,-2.83 -0.668,-2.654 -0.881,-2.947 -1.458,-2.012 m 43.982,3.911 c 0,4.31 -0.226,4.152 3.782,2.651 2.573,-0.963 0.704,-6.561 -2.19,-6.561 H 88.52 v 3.91 m 32.885,16.541 c -2.427,1.181 -5.096,2.319 -5.931,2.528 -0.835,0.21 -1.708,0.72 -1.94,1.134 -0.231,0.414 -0.969,0.836 -1.638,0.938 -1.695,0.259 -1.901,0.596 -1.293,2.117 0.292,0.729 0.546,1.014 0.565,0.633 0.02,-0.38 0.546,-0.691 1.169,-0.691 1.187,0 4.466,-1.493 4.966,-2.261 0.16,-0.245 1.058,-0.581 1.994,-0.746 5.621,-0.99 8.36,-3.347 6.608,-5.684 -0.048,-0.064 -2.073,0.851 -4.5,2.032 m -27.743,43.715 c -3.324,1.489 -3.837,9.398 -0.61,9.412 0.514,0.003 1.099,0.269 1.298,0.592 0.985,1.594 4.009,2.058 6.21,0.953 1.042,-0.523 1.385,-0.45 2.057,0.437 1.045,1.382 1.049,2.404 0.011,2.802 -0.456,0.175 -0.83,0.665 -0.83,1.089 0,0.424 -0.243,0.771 -0.539,0.771 -0.692,0 -2.837,4.684 -2.962,6.468 -0.087,1.24 0.464,1.587 6.154,3.877 5.86,2.358 6.194,2.574 5.372,3.483 -0.811,0.896 -0.712,1.146 1.325,3.33 2.353,2.524 2.209,2.499 7.663,1.342 1.706,-0.362 1.798,-0.299 1.798,1.243 0,0.893 0.622,3.212 1.383,5.153 0.76,1.941 1.383,3.851 1.383,4.244 0,0.393 -0.623,0.87 -1.383,1.061 -1.921,0.482 -1.759,2.23 0.446,4.804 l 1.787,2.087 2.623,-0.79 c 2.375,-0.714 2.688,-0.702 3.31,0.136 0.377,0.509 1.354,1.352 2.172,1.873 1.141,0.728 1.575,1.561 1.868,3.587 0.211,1.451 0.578,3.015 0.815,3.476 0.24,0.464 0.113,1.598 -0.283,2.54 -0.715,1.699 -0.709,1.708 2.906,4.559 l 3.622,2.856 2.945,-1.662 c 3.589,-2.025 3.296,-2.03 4.382,0.07 0.77,1.489 0.798,2.083 0.197,4.227 -0.638,2.28 -0.607,2.559 0.364,3.246 0.584,0.413 1.676,1.187 2.426,1.72 0.751,0.534 2.095,1.655 2.987,2.492 0.892,0.836 1.883,1.521 2.201,1.521 1.03,0 4.789,2.892 4.789,3.685 0,1.005 2.286,1.848 5.015,1.848 1.198,0 2.177,0.248 2.177,0.553 0,0.78 3.515,0.69 4.316,-0.111 0.516,-0.516 0.664,-0.455 0.664,0.277 0,0.517 0.353,0.94 0.784,0.94 0.432,0 1.116,0.084 1.522,0.186 0.405,0.102 0.55,0.082 0.322,-0.046 -0.718,-0.401 -0.451,-1.799 0.343,-1.799 3.207,0 0.996,-20.048 -2.584,-23.421 -1.49,-1.404 -6.384,-4.273 -12.127,-7.108 -1.132,-0.559 -2.344,-1.574 -2.693,-2.256 -0.349,-0.682 -1.074,-1.614 -1.61,-2.07 -1.539,-1.309 -3.874,-9.19 -3.874,-13.075 0,-2.891 -0.285,-3.861 -1.937,-6.604 -1.065,-1.769 -1.936,-3.64 -1.936,-4.158 0,-0.517 -0.374,-1.084 -0.83,-1.26 -0.456,-0.175 -0.83,-0.66 -0.83,-1.077 0,-0.917 -17.668,-9.234 -19.615,-9.234 -0.74,0 -1.671,-0.451 -2.069,-1.002 -0.397,-0.551 -2.447,-1.803 -4.555,-2.783 -2.108,-0.98 -4.176,-2.272 -4.596,-2.871 -0.419,-0.599 -1.379,-1.09 -2.132,-1.09 -0.753,0 -1.512,-0.372 -1.686,-0.826 -0.175,-0.455 -0.541,-0.689 -0.814,-0.52 -0.273,0.168 -0.737,-0.269 -1.031,-0.972 -1.009,-2.411 -3.063,-4.242 -6.102,-5.439 -10.05,-3.958 -9.586,-3.851 -12.009,-2.766 m 21.274,39.282 c -0.531,0.621 -0.966,1.485 -0.966,1.92 0,0.435 -0.249,0.945 -0.554,1.133 -0.304,0.188 -0.553,0.534 -0.553,0.768 0,0.454 5.552,1.887 5.913,1.526 0.228,-0.229 -0.981,-3.212 -1.491,-3.677 -0.167,-0.152 -0.546,-0.844 -0.843,-1.538 l -0.539,-1.261 -0.967,1.129 m 49.379,9.154 c 0,3.189 1.784,5.241 4.555,5.241 2.175,0 4.297,1.329 4.297,2.692 0,0.533 0.366,1.452 0.813,2.043 0.748,0.99 0.813,0.852 0.83,-1.763 l 0.017,-2.837 -5.256,-3.951 -5.256,-3.951 v 2.526"
       stroke="none"
       fill="#000000"
       fill-rule="evenodd"
       style="fill:#0d4a63;fill-opacity:1" />
  </g>
  <g
     inkscape:groupmode="layer"
     id="layer1"
     inkscape:label="Text"
     style="display:inline">
    <text
       xml:space="preserve"
       id="text845"
       style="font-size:18.66669999999999874px;line-height:1.35;font-family:'Apple SD Gothic Neo';-inkscape-font-specification:'Apple SD Gothic Neo, Normal';writing-mode:vertical-lr;white-space:pre;shape-inside:url(#rect847);fill:#ffffff;stroke:#ffffff;" />
    <text
       xml:space="preserve"
       style="font-size:17.3333px;line-height:1.3;font-family:'Apple SD Gothic Neo';-inkscape-font-specification:'Apple SD Gothic Neo, Normal';writing-mode:lr-tb"
       x="22.432383"
       y="17.367004"
       id="text853"><tspan
         x="22.432383"
         y="17.367004"
         sodipodi:role="line"
         id="tspan859"
         style="font-style:normal;font-variant:normal;font-weight:normal;font-stretch:normal;font-size:17.3333px;font-family:Courier;-inkscape-font-specification:Courier">01000010 01000011 00100000 01000100</tspan><tspan
         x="22.432383"
         y="39.968002"
         sodipodi:role="line"
         id="tspan867"
         style="font-style:normal;font-variant:normal;font-weight:normal;font-stretch:normal;font-size:17.3333px;font-family:Courier;-inkscape-font-specification:Courier">01100101 01110110 01100101 01101100</tspan><tspan
         x="22.432383"
         y="62.568996"
         sodipodi:role="line"
         id="tspan869"
         style="font-style:normal;font-variant:normal;font-weight:normal;font-stretch:normal;font-size:17.3333px;font-family:Courier;-inkscape-font-specification:Courier">01101111 01110000 01100101 01110010</tspan><tspan
         x="22.432383"
         y="85.169998"
         sodipodi:role="line"
         id="tspan871"
         style="font-style:normal;font-variant:normal;font-weight:normal;font-stretch:normal;font-size:17.3333px;font-family:Courier;-inkscape-font-specification:Courier">00100000 01000101 01111000 01100011</tspan><tspan
         x="22.432383"
         y="107.77099"
         sodipodi:role="line"
         id="tspan873"
         style="font-style:normal;font-variant:normal;font-weight:normal;font-stretch:normal;font-size:17.3333px;font-family:Courier;-inkscape-font-specification:Courier">01101000 01100001 01101110 01100111</tspan><tspan
         x="22.432383"
         y="130.37199"
         sodipodi:role="line"
         id="tspan875"
         style="font-style:normal;font-variant:normal;font-weight:normal;font-stretch:normal;font-size:17.3333px;font-family:Courier;-inkscape-font-specification:Courier">01100101 00100000 01000010 01101111</tspan><tspan
         x="22.432383"
         y="152.97299"
         sodipodi:role="line"
         id="tspan877"
         style="font-style:normal;font-variant:normal;font-weight:normal;font-stretch:normal;font-size:17.3333px;font-family:Courier;-inkscape-font-specification:Courier">01110100 01000010 01000011 00100000</tspan><tspan
         x="22.432383"
         y="175.57399"
         sodipodi:role="line"
         id="tspan879"
         style="font-style:normal;font-variant:normal;font-weight:normal;font-stretch:normal;font-size:17.3333px;font-family:Courier;-inkscape-font-specification:Courier">01000100 01100101 01110110 01100101</tspan><tspan
         x="22.432383"
         y="198.17497"
         sodipodi:role="line"
         id="tspan881"
         style="font-style:normal;font-variant:normal;font-weight:normal;font-stretch:normal;font-size:17.3333px;font-family:Courier;-inkscape-font-specification:Courier">01101100 01101111 01110000 01100101</tspan><tspan
         x="22.432383"
         y="220.77597"
         sodipodi:role="line"
         id="tspan883"
         style="font-style:normal;font-variant:normal;font-weight:normal;font-stretch:normal;font-size:17.3333px;font-family:Courier;-inkscape-font-specification:Courier">01110010 00100000 01000101 01111000</tspan><tspan
         x="22.432383"
         y="243.37697"
         sodipodi:role="line"
         id="tspan885"
         style="font-style:normal;font-variant:normal;font-weight:normal;font-stretch:normal;font-size:17.3333px;font-family:Courier;-inkscape-font-specification:Courier">01100011 01101000 01100001 01101110</tspan><tspan
         x="22.432383"
         y="265.97797"
         sodipodi:role="line"
         id="tspan887"
         style="font-style:normal;font-variant:normal;font-weight:normal;font-stretch:normal;font-size:17.3333px;font-family:Courier;-inkscape-font-specification:Courier">01100111 01100101 00100000 01000010</tspan><tspan
         x="22.432383"
         y="288.57898"
         sodipodi:role="line"
         id="tspan889"
         style="font-style:normal;font-variant:normal;font-weight:normal;font-stretch:normal;font-size:17.3333px;font-family:Courier;-inkscape-font-specification:Courier">01101111 01110100 01000010 01000011</tspan><tspan
         x="22.432383"
         y="311.17996"
         sodipodi:role="line"
         id="tspan891"
         style="font-style:normal;font-variant:normal;font-weight:normal;font-stretch:normal;font-size:17.3333px;font-family:Courier;-inkscape-font-specification:Courier">00100000 01000100 01100101 01110110</tspan><tspan
         x="22.432383"
         y="333.78098"
         sodipodi:role="line"
         id="tspan893"
         style="font-style:normal;font-variant:normal;font-weight:normal;font-stretch:normal;font-size:17.3333px;font-family:Courier;-inkscape-font-specification:Courier">01100101 01101100 01101111 01110000</tspan><tspan
         x="22.432383"
         y="356.38196"
         sodipodi:role="line"
         id="tspan895"
         style="font-style:normal;font-variant:normal;font-weight:normal;font-stretch:normal;font-size:17.3333px;font-family:Courier;-inkscape-font-specification:Courier">01100101 01110010 00100000 01000101</tspan><tspan
         x="22.432383"
         y="378.98294"
         sodipodi:role="line"
         id="tspan897"
         style="font-style:normal;font-variant:normal;font-weight:normal;font-stretch:normal;font-size:17.3333px;font-family:Courier;-inkscape-font-specification:Courier">01111000 01100011 01101000 01100001</tspan><tspan
         x="22.432383"
         y="401.58395"
         sodipodi:role="line"
         id="tspan899"
         style="font-style:normal;font-variant:normal;font-weight:normal;font-stretch:normal;font-size:17.3333px;font-family:Courier;-inkscape-font-specification:Courier">01101110 01100111 01100101 00100000</tspan><tspan
         x="22.432383"
         y="424.18494"
         sodipodi:role="line"
         id="tspan901"
         style="font-style:normal;font-variant:normal;font-weight:normal;font-stretch:normal;font-size:17.3333px;font-family:Courier;-inkscape-font-specification:Courier">01000010 01101111 01110100 00100000</tspan></text>
  </g>
</svg>
